<?xml version="1.0" encoding="iso-8859-1"?>
<!-- Generator: Adobe Illustrator 19.0.0, SVG Export Plug-In . SVG Version: 6.00 Build 0)  -->
<svg version="1.1" id="Capa_1" xmlns="http://www.w3.org/2000/svg" xmlns:xlink="http://www.w3.org/1999/xlink" x="0px" y="0px"
	 viewBox="0 0 512 512" style="enable-background:new 0 0 512 512;" xml:space="preserve">
<path style="fill:#AD5E2E;" d="M362,70H30c-11.05,0-20,8.95-20,20v392c0,11.05,8.95,20,20,20h332c11.05,0,20-8.95,20-20V90
	C382,78.95,373.05,70,362,70z"/>
<path style="fill:#FFE985;" d="M276,113V90c0-22.103-17.919-40-40-40c0-22.09-17.91-40-40-40c-22.08,0-40,17.919-40,40
	c-22.17,0-40,18.006-40,40v23H53v346h286V113H276z"/>
<polygon style="fill:#FFFFFF;" points="53,113 53,459 339,459 339,113 276,113 "/>
<path style="fill:#ED4C74;" d="M502,106v50h-60v-50c0-16.56,13.44-30,30-30C488.556,76,502,89.443,502,106z"/>
<path style="fill:#FFE985;" d="M502,422h-60c0-21.97,0-202.746,0-226h60C502,219.252,502,400.034,502,422z"/>
<rect x="442" y="156" style="fill:#D4E9FF;" width="60" height="40"/>
<polygon style="fill:#FFC478;" points="502,422 472,502 442,422 "/>
<g>
	<path style="fill:#79E59B;" d="M276,276c11.05,0,20,8.95,20,20s-8.95,20-20,20c-11.103,0-20-9-20-20C256,284.95,264.95,276,276,276
		z"/>
	<path style="fill:#79E59B;" d="M276,376c11.05,0,20,8.95,20,20s-8.95,20-20,20s-20-8.95-20-20C256,384.96,264.96,376,276,376z"/>
</g>
<path style="fill:#78D4FF;" d="M206,296c16.57,0,30,13.43,30,30c0,16.56-13.44,30-30,30c-17.473,0-31.223-14.945-29.93-32.01
	C177.1,308.36,190.11,296,206,296z"/>
<path style="fill:#79E59B;" d="M116,316c11.05,0,20,8.95,20,20s-8.95,20-20,20s-20-8.95-20-20S104.95,316,116,316z"/>
<path d="M296,226c-5.52,0-10,4.48-10,10s4.48,10,10,10s10-4.48,10-10S301.52,226,296,226z"/>
<path d="M196,60c5.52,0,10-4.48,10-10s-4.48-10-10-10s-10,4.48-10,10S190.48,60,196,60z"/>
<path d="M136,449c-5.52,0-10,4.48-10,10s4.48,10,10,10s10-4.48,10-10S141.52,449,136,449z"/>
<path d="M30,512h332c16.542,0,30-13.458,30-30V90c0-16.542-13.458-30-30-30h-86.013c-7.534-10.01-18.584-16.849-30.825-19.146
	C240.852,17.636,220.447,0,196,0c-24.805,0-44.943,17.936-49.166,40.834c-11.994,2.212-23.032,8.82-30.812,19.166H30
	C13.458,60,0,73.458,0,90v392C0,498.542,13.458,512,30,512z M156,60c5.523,0,10-4.477,10-10c0-16.569,13.429-30,30-30
	c16.542,0,30,13.458,30,30c0,5.523,4.477,10,10,10c16.217,0,30,13.122,30,30v13H126V90C126,73.559,139.308,60,156,60z M20,90
	c0-5.514,4.486-10,10-10h77.017C106.348,83.28,106,86.63,106,90v13H53c-5.523,0-10,4.477-10,10v346c0,5.523,4.477,10,10,10h43
	c5.523,0,10-4.477,10-10s-4.477-10-10-10H63V123c1.182,0,259.425,0,266,0v326H176c-5.523,0-10,4.477-10,10s4.477,10,10,10h163
	c5.523,0,10-4.477,10-10V113c0-5.523-4.477-10-10-10h-53V90c0-3.37-0.348-6.72-1.017-10H362c5.514,0,10,4.486,10,10v392
	c0,5.514-4.486,10-10,10H30c-5.514,0-10-4.486-10-10V90z"/>
<path d="M145.692,340.264l21.562-4.312C171.688,353.209,187.378,366,206,366c7.262,0,14.228-1.929,20.321-5.537l22.6,22.6
	C247.011,387.052,246,391.448,246,396c0,16.542,13.458,30,30,30s30-13.458,30-30s-13.458-30-30-30c-4.551,0-8.948,1.01-12.937,2.921
	l-22.6-22.6C244.071,340.228,246,333.262,246,326c0-1.258-0.066-2.5-0.18-3.728l9.34-4.668C260.648,322.919,268.041,326,276,326
	c16.542,0,30-13.458,30-30s-13.458-30-30-30s-30,13.458-30,30c0,1.239,0.083,2.477,0.237,3.705l-7.292,3.644
	C231.724,292.879,219.653,286,206,286c-18.305,0-33.971,12.463-38.604,29.527l-25.632,5.126C136.522,311.886,126.937,306,116,306
	c-16.542,0-30,13.458-30,30s13.458,30,30,30C131.094,366,143.615,354.793,145.692,340.264z M276,286c5.514,0,10,4.486,10,10
	s-4.486,10-10,10c-5.583,0-10-4.505-10-10C266,290.486,270.486,286,276,286z M286,396c0,5.514-4.486,10-10,10s-10-4.486-10-10
	c0-5.521,4.478-10,10-10C281.514,386,286,390.486,286,396z M206,306c11.028,0,20,8.972,20,20c0,5.338-2.082,10.359-5.861,14.139
	C216.359,343.918,211.338,346,206,346c-11.855,0-20.808-10.225-19.952-21.352C186.737,314.191,195.501,306,206,306z M106,336
	c0-5.514,4.486-10,10-10s10,4.486,10,10s-4.486,10-10,10S106,341.514,106,336z"/>
<path d="M96,166h200c5.523,0,10-4.477,10-10s-4.477-10-10-10H96c-5.523,0-10,4.477-10,10S90.477,166,96,166z"/>
<path d="M96,206h200c5.523,0,10-4.477,10-10s-4.477-10-10-10H96c-5.523,0-10,4.477-10,10S90.477,206,96,206z"/>
<path d="M96,246h160c5.523,0,10-4.477,10-10s-4.477-10-10-10H96c-5.523,0-10,4.477-10,10S90.477,246,96,246z"/>
<path d="M472,66c-22.098,0-40,17.899-40,40v316c0,4.184,1.372,4.045,30.637,83.511c1.464,3.903,5.195,6.489,9.363,6.489
	s7.899-2.585,9.363-6.489C509.938,427.918,512,426.263,512,422V106C512,83.7,493.877,66,472,66z M452,412V206h40v206H452z M492,186
	h-40v-20h40V186z M472,473.52L456.43,432h31.14L472,473.52z M492,146h-40v-40c0-11.046,8.954-20,20-20c10.976,0,20,8.89,20,20V146z"
	/>
<g>
</g>
<g>
</g>
<g>
</g>
<g>
</g>
<g>
</g>
<g>
</g>
<g>
</g>
<g>
</g>
<g>
</g>
<g>
</g>
<g>
</g>
<g>
</g>
<g>
</g>
<g>
</g>
<g>
</g>
</svg>
