<svg id="Layer_1" enable-background="new 0 0 256 256" height="512" viewBox="0 0 256 256" width="512" xmlns="http://www.w3.org/2000/svg"><path d="m204.719 152.703-7.215-63.149c-1.609-14.082-13.527-24.715-27.7-24.715h-7.767-5.576-28.461-28.461-5.576-7.767c-14.173 0-26.091 10.634-27.7 24.715l-7.215 63.149c-.794 6.949 3.177 13.564 9.683 16.131 6.357 2.508 13.406.505 17.568-4.523l-.001.013 28.326-35.33h21.143 21.142l28.326 35.33-.001-.013c4.162 5.028 11.211 7.031 17.568 4.523 6.506-2.566 10.478-9.182 9.684-16.131z" fill="#6bdddd"/><path d="m132.531 105.87h-9.061c-2.31 0-4.182-1.872-4.182-4.182 0-2.31 1.872-4.182 4.182-4.182h9.061c2.31 0 4.182 1.872 4.182 4.182 0 2.309-1.873 4.182-4.182 4.182z" fill="#ffea92"/><path d="m128.009 64.839h-.018-26.129l4.385 12.014c.602 1.65 2.172 2.748 3.929 2.748h17.815.018 17.815c1.757 0 3.326-1.098 3.929-2.748l4.385-12.014z" fill="#a4c9ff"/><circle cx="169.292" cy="101.688" fill="#e0ebfc" r="22.789"/><circle cx="169.292" cy="89.554" fill="#f9a7a7" r="6.495"/><circle cx="169.292" cy="113.821" fill="#f9a7a7" r="6.495"/><circle cx="181.425" cy="101.688" fill="#4671c6" r="6.495"/><circle cx="157.158" cy="101.688" fill="#4671c6" r="6.495"/><g fill="#3762cc"><path d="m169.292 98.049c-4.684 0-8.495-3.811-8.495-8.495s3.811-8.495 8.495-8.495 8.495 3.811 8.495 8.495-3.811 8.495-8.495 8.495zm0-12.989c-2.479 0-4.495 2.016-4.495 4.495s2.016 4.495 4.495 4.495 4.495-2.016 4.495-4.495-2.017-4.495-4.495-4.495z"/><path d="m169.292 122.316c-4.684 0-8.495-3.811-8.495-8.495s3.811-8.495 8.495-8.495 8.495 3.811 8.495 8.495-3.811 8.495-8.495 8.495zm0-12.989c-2.479 0-4.495 2.016-4.495 4.495s2.016 4.495 4.495 4.495 4.495-2.016 4.495-4.495-2.017-4.495-4.495-4.495z"/><path d="m181.425 110.183c-4.684 0-8.495-3.811-8.495-8.495s3.811-8.495 8.495-8.495 8.495 3.811 8.495 8.495-3.811 8.495-8.495 8.495zm0-12.99c-2.479 0-4.495 2.016-4.495 4.495s2.016 4.495 4.495 4.495 4.495-2.016 4.495-4.495-2.016-4.495-4.495-4.495z"/><path d="m157.158 110.183c-4.684 0-8.495-3.811-8.495-8.495s3.811-8.495 8.495-8.495 8.495 3.811 8.495 8.495-3.811 8.495-8.495 8.495zm0-12.99c-2.479 0-4.495 2.016-4.495 4.495s2.016 4.495 4.495 4.495 4.495-2.016 4.495-4.495-2.016-4.495-4.495-4.495z"/></g><circle cx="86.708" cy="101.688" fill="#e0ebfc" r="22.789"/><path d="m97.444 95.406h-4.454v-4.454c0-3.469-2.812-6.282-6.282-6.282-3.469 0-6.282 2.813-6.282 6.282v4.454h-4.454c-3.469 0-6.282 2.813-6.282 6.282 0 3.47 2.812 6.282 6.282 6.282h4.454v4.455c0 3.469 2.812 6.281 6.282 6.281 3.469 0 6.282-2.812 6.282-6.281v-4.455h4.454c3.469 0 6.282-2.812 6.282-6.282 0-3.469-2.812-6.282-6.282-6.282z" fill="#4671c6"/><path d="m86.708 120.706c-4.566 0-8.282-3.715-8.282-8.281v-2.455h-2.455c-4.566 0-8.282-3.715-8.282-8.282 0-4.566 3.715-8.282 8.282-8.282h2.455v-2.454c0-4.566 3.715-8.282 8.282-8.282s8.282 3.715 8.282 8.282v2.454h2.454c4.566 0 8.282 3.715 8.282 8.282s-3.715 8.282-8.282 8.282h-2.454v2.455c0 4.566-3.715 8.281-8.282 8.281zm-10.736-23.3c-2.361 0-4.282 1.921-4.282 4.282s1.921 4.282 4.282 4.282h4.455c1.104 0 2 .896 2 2v4.455c0 2.361 1.921 4.281 4.282 4.281s4.282-1.92 4.282-4.281v-4.455c0-1.104.896-2 2-2h4.454c2.361 0 4.282-1.921 4.282-4.282s-1.921-4.282-4.282-4.282h-4.455c-1.104 0-2-.896-2-2v-4.454c0-2.361-1.921-4.282-4.282-4.282s-4.282 1.921-4.282 4.282v4.454c0 1.104-.896 2-2 2z" fill="#3762cc"/><path d="m145.824 81.601h-35.648c-2.586 0-4.92-1.633-5.808-4.063l-4.385-12.014c-.224-.613-.134-1.297.24-1.832s.986-.854 1.639-.854h52.275c.653 0 1.265.319 1.639.854.375.535.464 1.219.24 1.832l-4.385 12.013c-.886 2.431-3.22 4.064-5.807 4.064zm-41.103-14.762 3.405 9.328c.313.857 1.137 1.434 2.05 1.434h35.648c.913 0 1.737-.577 2.05-1.435l3.405-9.327z" fill="#3762cc"/><path d="m66.646 171.919c-2.15 0-4.323-.398-6.416-1.224-7.334-2.894-11.832-10.385-10.936-18.218l7.214-63.149c1.726-15.101 14.488-26.488 29.688-26.488h83.607c15.199 0 27.962 11.388 29.688 26.488l7.215 63.149c.895 7.833-3.602 15.325-10.937 18.218-6.982 2.753-14.879.759-19.718-4.959-.05-.05-.098-.104-.143-.16l-27.726-34.581h-40.365l-27.726 34.581c-.045.057-.093.11-.144.161-3.388 4.004-8.278 6.182-13.301 6.182zm112.271-8.985c.032.033.063.067.092.103 3.722 4.496 9.868 6.077 15.293 3.938 5.653-2.23 9.12-8.005 8.43-14.043l-7.215-63.149c-1.494-13.079-12.548-22.942-25.713-22.942h-83.608c-13.165 0-24.219 9.863-25.713 22.942l-7.215 63.149c-.69 6.038 2.776 11.813 8.43 14.043 5.424 2.139 11.571.558 15.293-3.938.029-.036.06-.07.092-.104l28.213-35.189c.38-.474.954-.749 1.561-.749h42.285c.607 0 1.181.275 1.561.749z" fill="#3762cc"/><path d="m140 49.034c-3.359-2.947-7.572-4.571-11.946-4.571-4.321.02-8.548 1.683-11.902 4.683-1.045.934-1.624 2.321-1.588 3.805.036 1.496.688 2.865 1.789 3.757.762.618 1.669.944 2.622.944h.001c1.024 0 2.031-.391 2.835-1.099 1.805-1.592 3.98-2.439 6.333-2.45 2.293 0 4.46.827 6.268 2.391.799.692 1.796 1.073 2.807 1.073.967 0 1.883-.335 2.651-.969 1.092-.902 1.731-2.277 1.754-3.773.022-1.485-.57-2.866-1.624-3.791z" fill="#f9cfcf"/><path d="m152.703 39.257c-6.515-7.422-15.244-11.51-24.579-11.51h-.148c-9.392.044-18.135 4.214-24.618 11.741-.871 1.011-1.3 2.385-1.176 3.767.121 1.351.763 2.59 1.766 3.402.763.618 1.67.945 2.62.945 1.23 0 2.423-.565 3.275-1.55 4.8-5.555 11.256-8.633 18.18-8.666h.109c6.881 0 13.327 3.017 18.151 8.495.85.966 2.035 1.52 3.25 1.52.965 0 1.88-.336 2.652-.972.992-.819 1.623-2.064 1.731-3.416.11-1.384-.331-2.753-1.213-3.756z" fill="#f9cfcf"/><path d="m165.022 29.37c-9.383-11.655-22.836-18.34-36.909-18.34l-.214.001c-14.155.066-27.623 6.878-36.95 18.688-1.673 2.118-1.34 5.322.73 6.999.77.624 1.684.954 2.643.954h.001c1.284 0 2.498-.605 3.331-1.66 7.654-9.695 18.695-15.286 30.291-15.341h.175c11.529 0 22.557 5.488 30.257 15.056.833 1.035 2.039 1.629 3.309 1.629.973 0 1.897-.338 2.677-.982 2.048-1.695 2.351-4.902.659-7.004z" fill="#f9a7a7"/><ellipse cx="128.094" cy="67.595" fill="#f9a7a7" rx="5.355" ry="5.374"/><path d="m204.933 244.97h-153.866c-5.243 0-9.493-4.25-9.493-9.493v-48.099c0-5.243 4.25-9.493 9.493-9.493h153.865c5.243 0 9.493 4.25 9.493 9.493v48.099c.001 5.243-4.25 9.493-9.492 9.493z" fill="#4671c6"/><path d="m204.933 246.97h-153.866c-6.337 0-11.493-5.156-11.493-11.493v-48.099c0-6.337 5.156-11.493 11.493-11.493h153.865c6.337 0 11.493 5.156 11.493 11.493v48.099c.001 6.337-5.155 11.493-11.492 11.493zm-153.866-67.085c-4.132 0-7.493 3.361-7.493 7.493v48.099c0 4.131 3.361 7.493 7.493 7.493h153.865c4.132 0 7.493-3.361 7.493-7.493v-48.099c0-4.132-3.361-7.493-7.493-7.493z" fill="#3762cc"/><path d="m79.259 225.373h-15.759v-26.506c0-1.874-.503-3.322-1.496-4.306-.99-.98-2.279-1.476-3.831-1.476-1.542 0-2.817.506-3.788 1.503-.965.989-1.454 2.429-1.454 4.279v29.233c0 1.974.521 3.461 1.548 4.418 1.019.953 2.549 1.416 4.677 1.416h20.105c1.624 0 2.909-.377 3.819-1.119.968-.787 1.48-1.871 1.48-3.135 0-1.239-.511-2.323-1.48-3.138-.928-.776-2.212-1.169-3.821-1.169z" fill="#f9cfcf"/><path d="m95.605 193.086c-1.52 0-2.79.504-3.771 1.499-.977.99-1.472 2.431-1.472 4.283v29.905c0 1.852.501 3.298 1.486 4.297.991 1.003 2.255 1.512 3.757 1.512 1.554 0 2.844-.503 3.837-1.494.989-.991 1.491-2.442 1.491-4.314v-29.905c0-1.874-.503-3.322-1.496-4.306-.991-.981-2.28-1.477-3.832-1.477z" fill="#f9cfcf"/><path d="m143.202 193.712c-.77-.416-1.614-.626-2.509-.626-1.217 0-2.218.289-2.976.861-.709.535-1.229 1.157-1.546 1.847-.256.552-.626 1.501-1.13 2.897l-8.285 22.746-8.249-22.552c-.658-1.881-1.3-3.235-1.963-4.138-.809-1.103-2.128-1.662-3.919-1.662-1.449 0-2.68.469-3.659 1.394-.994.941-1.499 2.025-1.499 3.223 0 .44.07.942.214 1.533.136.558.304 1.084.502 1.56.173.42.342.849.514 1.309l9.777 24.575c.36.964.722 1.876 1.082 2.734.386.92.848 1.757 1.371 2.485.578.806 1.342 1.461 2.27 1.946.934.488 2.066.736 3.365.736 1.303 0 2.439-.254 3.374-.754.924-.494 1.68-1.141 2.247-1.926.516-.717.974-1.55 1.359-2.478.359-.866.718-1.78 1.07-2.718l9.964-24.83c.165-.442.331-.87.495-1.284.186-.466.343-.948.465-1.432.135-.528.204-1.035.204-1.508 0-.767-.233-1.522-.694-2.246-.449-.704-1.069-1.273-1.844-1.692z" fill="#f9cfcf"/><path d="m184.526 226.687c-.869-.734-2.107-1.106-3.682-1.106h-18.281v-8.554h16.151c1.565 0 2.777-.369 3.601-1.096.854-.753 1.305-1.773 1.305-2.951 0-1.188-.463-2.206-1.339-2.943-.832-.698-2.032-1.052-3.567-1.052h-16.151v-7.078h17.637c1.592 0 2.831-.363 3.682-1.08.893-.754 1.365-1.798 1.365-3.019 0-1.204-.472-2.239-1.366-2.994-.85-.716-2.089-1.079-3.681-1.079h-21.983c-1.323 0-2.446.191-3.338.567-1.005.424-1.756 1.115-2.232 2.052-.435.854-.655 1.936-.655 3.215v28.531c0 1.973.52 3.459 1.548 4.419 1.02.952 2.55 1.415 4.678 1.415h22.627c1.575 0 2.814-.372 3.682-1.106.911-.77 1.393-1.823 1.393-3.045 0-1.255-.482-2.325-1.394-3.096z" fill="#f9cfcf"/><ellipse cx="196.943" cy="190.275" fill="#f9a7a7" rx="6.127" ry="6.149"/></svg>